<svg width="31" height="35" viewBox="0 0 31 35" fill="none" xmlns="http://www.w3.org/2000/svg">
<mask id="mask0_1_760" style="mask-type:luminance" maskUnits="userSpaceOnUse" x="10" y="3" width="21" height="32">
<path d="M30.0751 9.69123V27.9864C30.0751 29.2716 29.6702 30.4691 28.9307 31.4904C28.2264 32.4764 27.2048 33.2687 25.9548 33.7443C24.7398 34.2196 23.4367 34.3255 22.2219 34.0965C20.9892 33.8675 19.8269 33.3042 18.8584 32.4237L12.0793 26.1198L10.7938 24.9399L12.0793 23.7603L18.876 17.4565C18.9643 17.3685 19.0171 17.3157 19.0522 17.2805C19.563 16.7346 19.8093 16.0654 19.8093 15.3787C19.8093 14.7096 19.563 14.0229 19.0522 13.4769C18.9643 13.389 18.9115 13.3362 18.876 13.301L15.7946 10.4483L14.5268 9.2687L15.7946 8.0888L18.8584 5.25369C19.8269 4.35587 20.9892 3.79231 22.2219 3.56331C23.4367 3.3346 24.7398 3.44015 25.9548 3.91546C27.2048 4.39105 28.2264 5.18332 28.9307 6.16941C29.6702 7.19068 30.0751 8.38817 30.0751 9.69123ZM26.8351 27.9864V9.69123C26.8351 9.07489 26.6416 8.51132 26.3246 8.05361C25.9724 7.57801 25.4617 7.19068 24.8101 6.94438C24.141 6.68019 23.4367 6.62742 22.8028 6.73297C22.1688 6.85612 21.5704 7.15549 21.0596 7.6135L19.2813 9.2687L21.0772 10.9415C21.2182 11.0822 21.3414 11.1878 21.4118 11.2761C22.5034 12.4557 23.0494 13.917 23.0494 15.3787C23.0494 16.8401 22.5034 18.3018 21.4118 19.4814C21.271 19.6224 21.1652 19.728 21.0772 19.816L15.5483 24.9399L21.0596 30.0466C21.5704 30.5043 22.1688 30.8036 22.8028 30.9268C23.4367 31.0502 24.141 30.9799 24.8101 30.7157C25.4617 30.4691 25.9724 30.0817 26.3246 29.6061C26.6416 29.1484 26.8351 28.5849 26.8351 27.9864Z" fill="white"/>
</mask>
<g mask="url(#mask0_1_760)">
<path d="M10.7941 3.33417H10.8298V34.3241H10.7941" fill="#FF6600"/>
<path d="M10.7941 3.33417H10.9163V34.3241H10.7941" fill="#FF6600"/>
<path d="M10.8805 3.33417H10.9878V34.3241H10.8805" fill="#FF6700"/>
<path d="M10.9521 3.33417H11.0595V34.3241H10.9521" fill="#FF6700"/>
<path d="M11.0237 3.33417H11.1459V34.3241H11.0237" fill="#FF6700"/>
<path d="M11.0923 3.33417H11.2175V34.3241H11.0923" fill="#FF6800"/>
<path d="M11.1816 3.33417H11.286V34.3241H11.1816" fill="#FF6800"/>
<path d="M11.2502 3.33417H11.3576V34.3241H11.2502" fill="#FF6800"/>
<path d="M11.3219 3.33417H11.4442V34.3241H11.3219" fill="#FF6900"/>
<path d="M11.3934 3.33417H11.5157V34.3241H11.3934" fill="#FF6900"/>
<path d="M11.4799 3.33417H11.5872V34.3241H11.4799" fill="#FF6900"/>
<path d="M11.5514 3.33417H11.6558V34.3241H11.5514" fill="#FF6A00"/>
<path d="M11.62 3.33417H11.7452V34.3241H11.62" fill="#FF6A00"/>
<path d="M11.7095 3.33417H11.8138V34.3241H11.7095" fill="#FF6B00"/>
<path d="M11.781 3.33417H11.8854V34.3241H11.781" fill="#FF6B00"/>
<path d="M11.8496 3.33417H11.9748V34.3241H11.8496" fill="#FF6B00"/>
<path d="M11.9211 3.33417H12.0434V34.3241H11.9211" fill="#FF6C00"/>
<path d="M12.0077 3.33417H12.115V34.3241H12.0077" fill="#FF6C00"/>
<path d="M12.0792 3.33417H12.1836V34.3241H12.0792" fill="#FF6C00"/>
<path d="M12.1508 3.33417H12.273V34.3241H12.1508" fill="#FF6D00"/>
<path d="M12.2194 3.33417H12.3446V34.3241H12.2194" fill="#FF6D00"/>
<path d="M12.3088 3.33417H12.4132V34.3241H12.3088" fill="#FF6D00"/>
<path d="M12.3774 3.33417H12.4848V34.3241H12.3774" fill="#FF6E00"/>
<path d="M12.449 3.33417H12.5712V34.3241H12.449" fill="#FF6E00"/>
<path d="M12.5385 3.33417H12.6428V34.3241H12.5385" fill="#FF6E00"/>
<path d="M12.6071 3.33417H12.7144V34.3241H12.6071" fill="#FF6F00"/>
<path d="M12.6786 3.33417H12.8008V34.3241H12.6786" fill="#FF6F00"/>
<path d="M12.7472 3.33417H12.8724V34.3241H12.7472" fill="#FF6F00"/>
<path d="M12.8365 3.33417H12.9409V34.3241H12.8365" fill="#FF7000"/>
<path d="M12.9082 3.33417H13.0126V34.3241H12.9082" fill="#FF7000"/>
<path d="M12.9768 3.33417H13.102V34.3241H12.9768" fill="#FF7000"/>
<path d="M13.0662 3.33417H13.1705V34.3241H13.0662" fill="#FF7100"/>
<path d="M13.1348 3.33417H13.2421V34.3241H13.1348" fill="#FF7100"/>
<path d="M13.2063 3.33417H13.3107V34.3241H13.2063" fill="#FF7200"/>
<path d="M13.278 3.33417H13.4002V34.3241H13.278" fill="#FF7200"/>
<path d="M13.3644 3.33417H13.4717V34.3241H13.3644" fill="#FF7200"/>
<path d="M13.4359 3.33417H13.5403V34.3241H13.4359" fill="#FF7300"/>
<path d="M13.5045 3.33417H13.6298V34.3241H13.5045" fill="#FF7300"/>
<path d="M13.576 3.33417H13.6983V34.3241H13.576" fill="#FF7300"/>
<path d="M13.6626 3.33417H13.7699V34.3241H13.6626" fill="#FF7400"/>
<path d="M13.7341 3.33417H13.8415V34.3241H13.7341" fill="#FF7400"/>
<path d="M13.8057 3.33417H13.9279V34.3241H13.8057" fill="#FF7400"/>
<path d="M13.8922 3.33417H13.9996V34.3241H13.8922" fill="#FF7500"/>
<path d="M13.9637 3.33417H14.0681V34.3241H13.9637" fill="#FF7500"/>
<path d="M14.0323 3.33417H14.1397V34.3241H14.0323" fill="#FF7500"/>
<path d="M14.1039 3.33417H14.2261V34.3241H14.1039" fill="#FF7600"/>
<path d="M14.1934 3.33417H14.2977V34.3241H14.1934" fill="#FF7600"/>
<path d="M14.262 3.33417H14.3693V34.3241H14.262" fill="#FF7600"/>
<path d="M14.3335 3.33417H14.4558V34.3241H14.3335" fill="#FF7700"/>
<path d="M14.405 3.33417H14.5273V34.3241H14.405" fill="#FF7700"/>
<path d="M14.4915 3.33417H14.5958V34.3241H14.4915" fill="#FF7700"/>
<path d="M14.5631 3.33417H14.6675V34.3241H14.5631" fill="#FF7800"/>
<path d="M14.6317 3.33417H14.757V34.3241H14.6317" fill="#FF7800"/>
<path d="M14.7211 3.33417H14.8254V34.3241H14.7211" fill="#FF7800"/>
<path d="M14.7897 3.33417H14.897V34.3241H14.7897" fill="#FF7900"/>
<path d="M14.8613 3.33417H14.9836V34.3241H14.8613" fill="#FF7900"/>
<path d="M14.9329 3.33417H15.0551V34.3241H14.9329" fill="#FF7A00"/>
<path d="M15.0193 3.33417H15.1266V34.3241H15.0193" fill="#FF7A00"/>
<path d="M15.0908 3.33417H15.1952V34.3241H15.0908" fill="#FF7A00"/>
<path d="M15.1594 3.33417H15.2847V34.3241H15.1594" fill="#FF7B00"/>
<path d="M15.231 3.33417H15.3532V34.3241H15.231" fill="#FF7B00"/>
<path d="M15.3204 3.33417H15.4248V34.3241H15.3204" fill="#FF7B00"/>
<path d="M15.389 3.33417H15.4964V34.3241H15.389" fill="#FF7C00"/>
<path d="M15.4606 3.33417H15.5828V34.3241H15.4606" fill="#FF7C00"/>
<path d="M15.547 3.33417H15.6543V34.3241H15.547" fill="#FF7C00"/>
<path d="M15.6187 3.33417H15.723V34.3241H15.6187" fill="#FF7D00"/>
<path d="M15.6902 3.33417H15.8124V34.3241H15.6902" fill="#FF7D00"/>
<path d="M15.7588 3.33417H15.884V34.3241H15.7588" fill="#FF7D00"/>
<path d="M15.8483 3.33417H15.9526V34.3241H15.8483" fill="#FF7E00"/>
<path d="M15.9169 3.33417H16.0242V34.3241H15.9169" fill="#FF7E00"/>
<path d="M15.9884 3.33417H16.1107V34.3241H15.9884" fill="#FF7E00"/>
<path d="M16.0599 3.33417H16.1822V34.3241H16.0599" fill="#FF7F00"/>
<path d="M16.1464 3.33417H16.2537V34.3241H16.1464" fill="#FF7F00"/>
<path d="M16.218 3.33417H16.3224V34.3241H16.218" fill="#FF7F00"/>
<path d="M16.2865 3.33417H16.4117V34.3241H16.2865" fill="#FF8000"/>
<path d="M16.376 3.33417H16.4803V34.3241H16.376" fill="#FF8000"/>
<path d="M16.4476 3.33417H16.552V34.3241H16.4476" fill="#FF8100"/>
<path d="M16.5161 3.33417H16.6384V34.3241H16.5161" fill="#FF8100"/>
<path d="M16.5878 3.33417H16.71V34.3241H16.5878" fill="#FF8100"/>
<path d="M16.6742 3.33417H16.7815V34.3241H16.6742" fill="#FF8200"/>
<path d="M16.7457 3.33417H16.8501V34.3241H16.7457" fill="#FF8200"/>
<path d="M16.8173 3.33417H16.9395V34.3241H16.8173" fill="#FF8200"/>
<path d="M16.9038 3.33417H17.0082V34.3241H16.9038" fill="#FF8300"/>
<path d="M16.9753 3.33417H17.0797V34.3241H16.9753" fill="#FF8300"/>
<path d="M17.0439 3.33417H17.1513V34.3241H17.0439" fill="#FF8300"/>
<path d="M17.1155 3.33417H17.2377V34.3241H17.1155" fill="#FF8400"/>
<path d="M17.202 3.33417H17.3094V34.3241H17.202" fill="#FF8400"/>
<path d="M17.2736 3.33417H17.3779V34.3241H17.2736" fill="#FF8400"/>
<path d="M17.3451 3.33417H17.4673V34.3241H17.3451" fill="#FF8500"/>
<path d="M17.4137 3.33417H17.5389V34.3241H17.4137" fill="#FF8500"/>
<path d="M17.5032 3.33417H17.6075V34.3241H17.5032" fill="#FF8500"/>
<path d="M17.5718 3.33417H17.6791V34.3241H17.5718" fill="#FF8600"/>
<path d="M17.6433 3.33417H17.7656V34.3241H17.6433" fill="#FF8600"/>
<path d="M17.7328 3.33417H17.8372V34.3241H17.7328" fill="#FF8600"/>
<path d="M17.8013 3.33417H17.9086V34.3241H17.8013" fill="#FF8700"/>
<path d="M17.8729 3.33417H17.9773V34.3241H17.8729" fill="#FF8700"/>
<path d="M17.9414 3.33417H18.0666V34.3241H17.9414" fill="#FF8800"/>
<path d="M18.0309 3.33417H18.1352V34.3241H18.0309" fill="#FF8800"/>
<path d="M18.1024 3.33417H18.2068V34.3241H18.1024" fill="#FF8800"/>
<path d="M18.171 3.33417H18.2963V34.3241H18.171" fill="#FF8900"/>
<path d="M18.2427 3.33417H18.3649V34.3241H18.2427" fill="#FF8900"/>
<path d="M18.3291 3.33417H18.4364V34.3241H18.3291" fill="#FF8900"/>
<path d="M18.4006 3.33417H18.505V34.3241H18.4006" fill="#FF8A00"/>
<path d="M18.4722 3.33417H18.5944V34.3241H18.4722" fill="#FF8A00"/>
<path d="M18.5587 3.33417H18.6661V34.3241H18.5587" fill="#FF8A00"/>
<path d="M18.6302 3.33417H18.7346V34.3241H18.6302" fill="#FF8B00"/>
<path d="M18.6989 3.33417H18.8241V34.3241H18.6989" fill="#FF8B00"/>
<path d="M18.7704 3.33417H18.8926V34.3241H18.7704" fill="#FF8B00"/>
<path d="M18.8599 3.33417H18.9642V34.3241H18.8599" fill="#FF8C00"/>
<path d="M18.9285 3.33417H19.0358V34.3241H18.9285" fill="#FF8C00"/>
<path d="M19 3.33417H19.1223V34.3241H19" fill="#FF8C00"/>
<path d="M19.0686 3.33417H19.1938V34.3241H19.0686" fill="#FF8D00"/>
<path d="M19.1581 3.33417H19.2624V34.3241H19.1581" fill="#FF8D00"/>
<path d="M19.2296 3.33417H19.334V34.3241H19.2296" fill="#FF8D00"/>
<path d="M19.2982 3.33417H19.4235V34.3241H19.2982" fill="#FF8E00"/>
<path d="M19.3877 3.33417H19.4921V34.3241H19.3877" fill="#FF8E00"/>
<path d="M19.4562 3.33417H19.5635V34.3241H19.4562" fill="#FF8E00"/>
<path d="M19.5278 3.33417H19.6501V34.3241H19.5278" fill="#FF8F00"/>
<path d="M19.5994 3.33417H19.7216V34.3241H19.5994" fill="#FF8F00"/>
<path d="M19.6858 3.33417H19.7931V34.3241H19.6858" fill="#FF9000"/>
<path d="M19.7573 3.33417H19.8617V34.3241H19.7573" fill="#FF9000"/>
<path d="M19.8259 3.33417H19.9512V34.3241H19.8259" fill="#FF9000"/>
<path d="M19.8976 3.33417H20.0198V34.3241H19.8976" fill="#FF9100"/>
<path d="M19.984 3.33417H20.0914V34.3241H19.984" fill="#FF9100"/>
<path d="M20.0555 3.33417H20.1629V34.3241H20.0555" fill="#FF9100"/>
<path d="M20.1272 3.33417H20.2495V34.3241H20.1272" fill="#FF9200"/>
<path d="M20.2136 3.33417H20.321V34.3241H20.2136" fill="#FF9200"/>
<path d="M20.2852 3.33417H20.3895V34.3241H20.2852" fill="#FF9200"/>
<path d="M20.3538 3.33417H20.479V34.3241H20.3538" fill="#FF9300"/>
<path d="M20.4253 3.33417H20.5475V34.3241H20.4253" fill="#FF9300"/>
<path d="M20.5148 3.33417H20.6191V34.3241H20.5148" fill="#FF9300"/>
<path d="M20.5834 3.33417H20.6907V34.3241H20.5834" fill="#FF9400"/>
<path d="M20.6549 3.33417H20.7772V34.3241H20.6549" fill="#FF9400"/>
<path d="M20.7413 3.33417H20.8487V34.3241H20.7413" fill="#FF9400"/>
<path d="M20.813 3.33417H20.9174V34.3241H20.813" fill="#FF9500"/>
<path d="M20.8845 3.33417H20.9889V34.3241H20.8845" fill="#FF9500"/>
<path d="M20.9531 3.33417H21.0784V34.3241H20.9531" fill="#FF9500"/>
<path d="M21.0426 3.33417H21.147V34.3241H21.0426" fill="#FF9600"/>
<path d="M21.1111 3.33417H21.2184V34.3241H21.1111" fill="#FF9600"/>
<path d="M21.1827 3.33417H21.305V34.3241H21.1827" fill="#FF9700"/>
<path d="M21.2543 3.33417H21.3765V34.3241H21.2543" fill="#FF9700"/>
<path d="M21.3407 3.33417H21.448V34.3241H21.3407" fill="#FF9700"/>
<path d="M21.4122 3.33417H21.5166V34.3241H21.4122" fill="#FF9800"/>
<path d="M21.4808 3.33417H21.6061V34.3241H21.4808" fill="#FF9800"/>
<path d="M21.5703 3.33417H21.6747V34.3241H21.5703" fill="#FF9800"/>
<path d="M21.6418 3.33417H21.7462V34.3241H21.6418" fill="#FF9900"/>
<path d="M21.7104 3.33417H21.8178V34.3241H21.7104" fill="#FF9900"/>
<path d="M21.7821 3.33417H21.9044V34.3241H21.7821" fill="#FF9900"/>
<path d="M21.8685 3.33417H21.9759V34.3241H21.8685" fill="#FF9A00"/>
<path d="M21.9401 3.33417H22.0444V34.3241H21.9401" fill="#FF9A00"/>
<path d="M22.0116 3.33417H22.1339V34.3241H22.0116" fill="#FF9A00"/>
<path d="M22.0802 3.33417H22.2054V34.3241H22.0802" fill="#FF9B00"/>
<path d="M22.1697 3.33417H22.274V34.3241H22.1697" fill="#FF9B00"/>
<path d="M22.2383 3.33417H22.3456V34.3241H22.2383" fill="#FF9B00"/>
<path d="M22.3098 3.33417H22.4321V34.3241H22.3098" fill="#FF9C00"/>
<path d="M22.3993 3.33417H22.5037V34.3241H22.3993" fill="#FF9C00"/>
<path d="M22.4679 3.33417H22.5752V34.3241H22.4679" fill="#FF9C00"/>
<path d="M22.5394 3.33417H22.6617V34.3241H22.5394" fill="#FF9D00"/>
<path d="M22.608 3.33417H22.7333V34.3241H22.608" fill="#FF9D00"/>
<path d="M22.6974 3.33417H22.8018V34.3241H22.6974" fill="#FF9D00"/>
<path d="M22.769 3.33417H22.8734V34.3241H22.769" fill="#FF9E00"/>
<path d="M22.8376 3.33417H22.9599V34.3241H22.8376" fill="#FF9E00"/>
<path d="M22.9092 3.33417H23.0314V34.3241H22.9092" fill="#FF9F00"/>
<path d="M22.9956 3.33417H23.103V34.3241H22.9956" fill="#FF9F00"/>
<path d="M23.0671 3.33417H23.1715V34.3241H23.0671" fill="#FF9F00"/>
<path d="M23.1388 3.33417H23.261V34.3241H23.1388" fill="#FFA000"/>
<path d="M23.2252 3.33417H23.3296V34.3241H23.2252" fill="#FFA000"/>
<path d="M23.2968 3.33417H23.4011V34.3241H23.2968" fill="#FFA000"/>
<path d="M23.3654 3.33417H23.4906V34.3241H23.3654" fill="#FFA100"/>
<path d="M23.4369 3.33417H23.5591V34.3241H23.4369" fill="#FFA100"/>
<path d="M23.5234 3.33417H23.6308V34.3241H23.5234" fill="#FFA100"/>
<path d="M23.595 3.33417H23.6993V34.3241H23.595" fill="#FFA200"/>
<path d="M23.6665 3.33417H23.7888V34.3241H23.6665" fill="#FFA200"/>
<path d="M23.7351 3.33417H23.8603V34.3241H23.7351" fill="#FFA200"/>
<path d="M23.8246 3.33417H23.9289V34.3241H23.8246" fill="#FFA300"/>
<path d="M23.8932 3.33417H24.0005V34.3241H23.8932" fill="#FFA300"/>
<path d="M23.9647 3.33417H24.087V34.3241H23.9647" fill="#FFA300"/>
<path d="M24.0542 3.33417H24.1586V34.3241H24.0542" fill="#FFA400"/>
<path d="M24.1228 3.33417H24.2301V34.3241H24.1228" fill="#FFA400"/>
<path d="M24.1943 3.33417H24.3166V34.3241H24.1943" fill="#FFA400"/>
<path d="M24.2629 3.33417H24.3882V34.3241H24.2629" fill="#FFA500"/>
<path d="M24.3523 3.33417H24.4567V34.3241H24.3523" fill="#FFA500"/>
<path d="M24.424 3.33417H24.5283V34.3241H24.424" fill="#FFA600"/>
<path d="M24.4926 3.33417H24.6178V34.3241H24.4926" fill="#FFA600"/>
<path d="M24.5819 3.33417H24.6863V34.3241H24.5819" fill="#FFA600"/>
<path d="M24.6505 3.33417H24.7579V34.3241H24.6505" fill="#FFA700"/>
<path d="M24.7222 3.33417H24.8265V34.3241H24.7222" fill="#FFA700"/>
<path d="M24.7937 3.33417H24.916V34.3241H24.7937" fill="#FFA700"/>
<path d="M24.8801 3.33417H24.9875V34.3241H24.8801" fill="#FFA800"/>
<path d="M24.9517 3.33417H25.056V34.3241H24.9517" fill="#FFA800"/>
<path d="M25.0203 3.33417H25.1455V34.3241H25.0203" fill="#FFA800"/>
<path d="M25.0918 3.33417H25.2141V34.3241H25.0918" fill="#FFA900"/>
<path d="M25.1813 3.33417H25.2856V34.3241H25.1813" fill="#FFA900"/>
<path d="M25.2499 3.33417H25.3572V34.3241H25.2499" fill="#FFA900"/>
<path d="M25.3214 3.33417H25.4437V34.3241H25.3214" fill="#FFAA00"/>
<path d="M25.408 3.33417H25.5153V34.3241H25.408" fill="#FFAA00"/>
<path d="M25.4795 3.33417H25.5839V34.3241H25.4795" fill="#FFAA00"/>
<path d="M25.551 3.33417H25.6554V34.3241H25.551" fill="#FFAB00"/>
<path d="M25.6196 3.33417H25.7449V34.3241H25.6196" fill="#FFAB00"/>
<path d="M25.7091 3.33417H25.8135V34.3241H25.7091" fill="#FFAB00"/>
<path d="M25.7777 3.33417H25.8851V34.3241H25.7777" fill="#FFAC00"/>
<path d="M25.8492 3.33417H25.9715V34.3241H25.8492" fill="#FFAC00"/>
<path d="M25.9208 3.33417H26.043V34.3241H25.9208" fill="#FFAD00"/>
<path d="M26.0072 3.33417H26.1146V34.3241H26.0072" fill="#FFAD00"/>
<path d="M26.0789 3.33417H26.1832V34.3241H26.0789" fill="#FFAD00"/>
<path d="M26.1475 3.33417H26.2727V34.3241H26.1475" fill="#FFAE00"/>
<path d="M26.2368 3.33417H26.3412V34.3241H26.2368" fill="#FFAE00"/>
<path d="M26.3054 3.33417H26.4128V34.3241H26.3054" fill="#FFAE00"/>
<path d="M26.3771 3.33417H26.4993V34.3241H26.3771" fill="#FFAF00"/>
<path d="M26.4486 3.33417H26.5709V34.3241H26.4486" fill="#FFAF00"/>
<path d="M26.535 3.33417H26.6424V34.3241H26.535" fill="#FFAF00"/>
<path d="M26.6066 3.33417H26.7109V34.3241H26.6066" fill="#FFB000"/>
<path d="M26.6752 3.33417H26.8004V34.3241H26.6752" fill="#FFB000"/>
<path d="M26.7467 3.33417H26.869V34.3241H26.7467" fill="#FFB000"/>
<path d="M26.8362 3.33417H26.9405V34.3241H26.8362" fill="#FFB100"/>
<path d="M26.9048 3.33417H27.0121V34.3241H26.9048" fill="#FFB100"/>
<path d="M26.9763 3.33417H27.0986V34.3241H26.9763" fill="#FFB100"/>
<path d="M27.0629 3.33417H27.1702V34.3241H27.0629" fill="#FFB200"/>
<path d="M27.1344 3.33417H27.2388V34.3241H27.1344" fill="#FFB200"/>
<path d="M27.2059 3.33417H27.3282V34.3241H27.2059" fill="#FFB200"/>
<path d="M27.2745 3.33417H27.3998V34.3241H27.2745" fill="#FFB300"/>
<path d="M27.364 3.33417H27.4684V34.3241H27.364" fill="#FFB300"/>
<path d="M27.4326 3.33417H27.54V34.3241H27.4326" fill="#FFB300"/>
<path d="M27.5042 3.33417H27.6264V34.3241H27.5042" fill="#FFB400"/>
<path d="M27.5757 3.33417H27.6979V34.3241H27.5757" fill="#FFB400"/>
<path d="M27.6621 3.33417H27.7695V34.3241H27.6621" fill="#FFB500"/>
<path d="M27.7338 3.33417H27.8381V34.3241H27.7338" fill="#FFB500"/>
<path d="M27.8022 3.33417H27.9275V34.3241H27.8022" fill="#FFB500"/>
<path d="M27.8917 3.33417H27.9961V34.3241H27.8917" fill="#FFB600"/>
<path d="M27.9634 3.33417H28.0677V34.3241H27.9634" fill="#FFB600"/>
<path d="M28.0319 3.33417H28.1571V34.3241H28.0319" fill="#FFB600"/>
<path d="M28.1035 3.33417H28.2258V34.3241H28.1035" fill="#FFB700"/>
<path d="M28.1899 3.33417H28.2973V34.3241H28.1899" fill="#FFB700"/>
<path d="M28.2615 3.33417H28.3658V34.3241H28.2615" fill="#FFB700"/>
<path d="M28.3331 3.33417H28.4554V34.3241H28.3331" fill="#FFB800"/>
<path d="M28.4196 3.33417H28.5269V34.3241H28.4196" fill="#FFB800"/>
<path d="M28.4911 3.33417H28.5955V34.3241H28.4911" fill="#FFB800"/>
<path d="M28.5597 3.33417H28.667V34.3241H28.5597" fill="#FFB900"/>
<path d="M28.6312 3.33417H28.7535V34.3241H28.6312" fill="#FFB900"/>
<path d="M28.7207 3.33417H28.8251V34.3241H28.7207" fill="#FFB900"/>
<path d="M28.7893 3.33417H28.8967V34.3241H28.7893" fill="#FFBA00"/>
<path d="M28.8608 3.33417H28.9831V34.3241H28.8608" fill="#FFBA00"/>
<path d="M28.9294 3.33417H29.0547V34.3241H28.9294" fill="#FFBA00"/>
<path d="M29.0189 3.33417H29.1233V34.3241H29.0189" fill="#FFBB00"/>
<path d="M29.0905 3.33417H29.1948V34.3241H29.0905" fill="#FFBB00"/>
<path d="M29.1591 3.33417H29.2813V34.3241H29.1591" fill="#FFBC00"/>
<path d="M29.2485 3.33417H29.3529V34.3241H29.2485" fill="#FFBC00"/>
<path d="M29.3171 3.33417H29.4245V34.3241H29.3171" fill="#FFBC00"/>
<path d="M29.3887 3.33417H29.493V34.3241H29.3887" fill="#FFBD00"/>
<path d="M29.4602 3.33417H29.5825V34.3241H29.4602" fill="#FFBD00"/>
<path d="M29.5466 3.33417H29.651V34.3241H29.5466" fill="#FFBD00"/>
<path d="M29.6182 3.33417H29.7225V34.3241H29.6182" fill="#FFBE00"/>
<path d="M29.6868 3.33417H29.812V34.3241H29.6868" fill="#FFBE00"/>
<path d="M29.7584 3.33417H29.8807V34.3241H29.7584" fill="#FFBE00"/>
<path d="M29.8448 3.33417H29.9522V34.3241H29.8448" fill="#FFBF00"/>
<path d="M29.9164 3.33417H30.0744V34.3241H29.9164" fill="#FFBF00"/>
</g>
<mask id="mask1_1_760" style="mask-type:luminance" maskUnits="userSpaceOnUse" x="0" y="0" width="24" height="31">
<path d="M0 24.535V6.23985C0 4.9371 0.40493 3.7396 1.14442 2.71833C1.84872 1.73224 2.87029 0.939978 4.12027 0.464379C5.33536 0.00667087 6.62081 -0.116776 7.8532 0.112227C9.08588 0.34123 10.2482 0.904494 11.1988 1.80262L21.0772 10.9416C21.2183 11.0823 21.3414 11.1879 21.4118 11.2761C22.5034 12.4557 23.0494 13.9171 23.0494 15.3788C23.0494 16.8402 22.5034 18.3019 21.4118 19.4815C21.271 19.6225 21.1652 19.7281 21.0772 19.816L11.1988 28.9726C10.2482 29.8528 9.08588 30.4164 7.8532 30.6454C6.62081 30.8741 5.33536 30.7685 4.12027 30.2932C2.87029 29.8176 1.84872 29.0254 1.14442 28.0393C0.40493 27.018 0 25.8205 0 24.535ZM3.24004 6.23985V24.535C3.24004 25.1338 3.41596 25.6974 3.75052 26.1551C4.10267 26.6307 4.61346 27.018 5.26498 27.2643C5.9341 27.5285 6.62081 27.5989 7.27234 27.4757C7.90627 27.3526 8.50472 27.0708 8.99791 26.5952L18.8761 17.4565C18.9643 17.3686 19.0171 17.3158 19.0523 17.2806C19.5631 16.7346 19.8094 16.0655 19.8094 15.3788C19.8094 14.7097 19.5631 14.023 19.0523 13.477C18.9643 13.389 18.9115 13.3363 18.8761 13.3011L8.99791 4.16212C8.50472 3.70441 7.90627 3.40504 7.27234 3.28189C6.62081 3.17604 5.9341 3.22882 5.26498 3.493C4.61346 3.7396 4.10267 4.12694 3.75052 4.60254C3.41596 5.06024 3.24004 5.62381 3.24004 6.23985Z" fill="white"/>
</mask>
<g mask="url(#mask1_1_760)">
<path d="M0 -0.115601H0.0536741V30.8744H0" fill="#8030C5"/>
<path d="M0 -0.115601H0.140144V30.8744H0" fill="#8030C5"/>
<path d="M0.0894775 -0.115601H0.229621V30.8744H0.0894775" fill="#8131C5"/>
<path d="M0.175903 -0.115601H0.316047V30.8744H0.175903" fill="#8131C5"/>
<path d="M0.280273 -0.115601H0.405508V30.8744H0.280273" fill="#8131C5"/>
<path d="M0.369751 -0.115601H0.492004V30.8744H0.369751" fill="#8131C5"/>
<path d="M0.459229 -0.115601H0.581482V30.8744H0.459229" fill="#8232C5"/>
<path d="M0.545654 -0.115601H0.685798V30.8744H0.545654" fill="#8232C5"/>
<path d="M0.635132 -0.115601H0.775275V30.8744H0.635132" fill="#8232C5"/>
<path d="M0.721558 -0.115601H0.861705V30.8744H0.721558" fill="#8332C5"/>
<path d="M0.811035 -0.115601H0.951182V30.8744H0.811035" fill="#8333C6"/>
<path d="M0.897583 -0.115601H1.03773V30.8744H0.897583" fill="#8333C6"/>
<path d="M0.986938 -0.115601H1.12709V30.8744H0.986938" fill="#8433C6"/>
<path d="M1.09131 -0.115601H1.21356V30.8744H1.09131" fill="#8433C6"/>
<path d="M1.18079 -0.115601H1.30304V30.8744H1.18079" fill="#8434C6"/>
<path d="M1.26721 -0.115601H1.39245V30.8744H1.26721" fill="#8434C6"/>
<path d="M1.35669 -0.115601H1.49683V30.8744H1.35669" fill="#8534C6"/>
<path d="M1.44324 -0.115601H1.58338V30.8744H1.44324" fill="#8534C6"/>
<path d="M1.53259 -0.115601H1.67274V30.8744H1.53259" fill="#8535C6"/>
<path d="M1.61914 -0.115601H1.76227V30.8744H1.61914" fill="#8635C6"/>
<path d="M1.70862 -0.115601H1.84876V30.8744H1.70862" fill="#8635C6"/>
<path d="M1.79504 -0.115601H1.93817V30.8744H1.79504" fill="#8635C6"/>
<path d="M1.90234 -0.115601H2.0246V30.8744H1.90234" fill="#8636C6"/>
<path d="M1.98889 -0.115601H2.11413V30.8744H1.98889" fill="#8736C6"/>
<path d="M2.07837 -0.115601H2.20063V30.8744H2.07837" fill="#8736C6"/>
<path d="M2.16479 -0.115601H2.30792V30.8744H2.16479" fill="#8736C6"/>
<path d="M2.25427 -0.115601H2.39442V30.8744H2.25427" fill="#8837C6"/>
<path d="M2.3407 -0.115601H2.48383V30.8744H2.3407" fill="#8837C6"/>
<path d="M2.43018 -0.115601H2.57032V30.8744H2.43018" fill="#8837C7"/>
<path d="M2.5166 -0.115601H2.65973V30.8744H2.5166" fill="#8937C7"/>
<path d="M2.60608 -0.115601H2.74622V30.8744H2.60608" fill="#8938C7"/>
<path d="M2.71045 -0.115601H2.83568V30.8744H2.71045" fill="#8938C7"/>
<path d="M2.79993 -0.115601H2.92218V30.8744H2.79993" fill="#8938C7"/>
<path d="M2.88635 -0.115601H3.01159V30.8744H2.88635" fill="#8A38C7"/>
<path d="M2.97583 -0.115601H3.11597V30.8744H2.97583" fill="#8A39C7"/>
<path d="M3.06531 -0.115601H3.20545V30.8744H3.06531" fill="#8A39C7"/>
<path d="M3.15173 -0.115601H3.29188V30.8744H3.15173" fill="#8B39C7"/>
<path d="M3.24121 -0.115601H3.38136V30.8744H3.24121" fill="#8B39C7"/>
<path d="M3.32776 -0.115601H3.46791V30.8744H3.32776" fill="#8B3AC7"/>
<path d="M3.41711 -0.115601H3.55726V30.8744H3.41711" fill="#8B3AC7"/>
<path d="M3.52148 -0.115601H3.64374V30.8744H3.52148" fill="#8C3AC7"/>
<path d="M3.61096 -0.115601H3.73322V30.8744H3.61096" fill="#8C3AC7"/>
<path d="M3.69739 -0.115601H3.81964V30.8744H3.69739" fill="#8C3BC7"/>
<path d="M3.78687 -0.115601H3.92701V30.8744H3.78687" fill="#8D3BC7"/>
<path d="M3.87341 -0.115601H4.01356V30.8744H3.87341" fill="#8D3BC7"/>
<path d="M3.96289 -0.115601H4.10303V30.8744H3.96289" fill="#8D3BC7"/>
<path d="M4.04932 -0.115601H4.18946V30.8744H4.04932" fill="#8E3CC8"/>
<path d="M4.13879 -0.115601H4.27894V30.8744H4.13879" fill="#8E3CC8"/>
<path d="M4.22522 -0.115601H4.36537V30.8744H4.22522" fill="#8E3CC8"/>
<path d="M4.33252 -0.115601H4.45477V30.8744H4.33252" fill="#8E3CC8"/>
<path d="M4.41907 -0.115601H4.54431V30.8744H4.41907" fill="#8F3DC8"/>
<path d="M4.50854 -0.115601H4.6308V30.8744H4.50854" fill="#8F3DC8"/>
<path d="M4.59497 -0.115601H4.7381V30.8744H4.59497" fill="#8F3DC8"/>
<path d="M4.68445 -0.115601H4.8246V30.8744H4.68445" fill="#903EC8"/>
<path d="M4.77087 -0.115601H4.914V30.8744H4.77087" fill="#903EC8"/>
<path d="M4.86035 -0.115601H5.0005V30.8744H4.86035" fill="#903EC8"/>
<path d="M4.94678 -0.115601H5.0899V30.8744H4.94678" fill="#903EC8"/>
<path d="M5.03625 -0.115601H5.1764V30.8744H5.03625" fill="#913FC8"/>
<path d="M5.14062 -0.115601H5.26586V30.8744H5.14062" fill="#913FC8"/>
<path d="M5.2301 -0.115601H5.35236V30.8744H5.2301" fill="#913FC8"/>
<path d="M5.31653 -0.115601H5.44176V30.8744H5.31653" fill="#923FC8"/>
<path d="M5.40601 -0.115601H5.54615V30.8744H5.40601" fill="#9240C8"/>
<path d="M5.49255 -0.115601H5.63568V30.8744H5.49255" fill="#9240C8"/>
<path d="M5.58191 -0.115601H5.72206V30.8744H5.58191" fill="#9340C8"/>
<path d="M5.66846 -0.115601H5.81159V30.8744H5.66846" fill="#9340C9"/>
<path d="M5.75793 -0.115601H5.89808V30.8744H5.75793" fill="#9341C9"/>
<path d="M5.84729 -0.115601H5.98744V30.8744H5.84729" fill="#9341C9"/>
<path d="M5.95166 -0.115601H6.07391V30.8744H5.95166" fill="#9441C9"/>
<path d="M6.03821 -0.115601H6.16344V30.8744H6.03821" fill="#9441C9"/>
<path d="M6.12769 -0.115601H6.24994V30.8744H6.12769" fill="#9442C9"/>
<path d="M6.21704 -0.115601H6.35718V30.8744H6.21704" fill="#9542C9"/>
<path d="M6.30359 -0.115601H6.44373V30.8744H6.30359" fill="#9542C9"/>
<path d="M6.39307 -0.115601H6.53321V30.8744H6.39307" fill="#9542C9"/>
<path d="M6.47949 -0.115601H6.61964V30.8744H6.47949" fill="#9543C9"/>
<path d="M6.56897 -0.115601H6.70911V30.8744H6.56897" fill="#9643C9"/>
<path d="M6.6554 -0.115601H6.79554V30.8744H6.6554" fill="#9643C9"/>
<path d="M6.7627 -0.115601H6.88495V30.8744H6.7627" fill="#9643C9"/>
<path d="M6.84924 -0.115601H6.9715V30.8744H6.84924" fill="#9744C9"/>
<path d="M6.93872 -0.115601H7.06098V30.8744H6.93872" fill="#9744C9"/>
<path d="M7.02515 -0.115601H7.16529V30.8744H7.02515" fill="#9744C9"/>
<path d="M7.11462 -0.115601H7.25477V30.8744H7.11462" fill="#9844C9"/>
<path d="M7.20105 -0.115601H7.34119V30.8744H7.20105" fill="#9845C9"/>
<path d="M7.29053 -0.115601H7.43067V30.8744H7.29053" fill="#9845CA"/>
<path d="M7.37695 -0.115601H7.52008V30.8744H7.37695" fill="#9845CA"/>
<path d="M7.46643 -0.115601H7.60657V30.8744H7.46643" fill="#9945CA"/>
<path d="M7.5708 -0.115601H7.69604V30.8744H7.5708" fill="#9946CA"/>
<path d="M7.66028 -0.115601H7.78253V30.8744H7.66028" fill="#9946CA"/>
<path d="M7.7467 -0.115601H7.87194V30.8744H7.7467" fill="#9A46CA"/>
<path d="M7.83618 -0.115601H7.97633V30.8744H7.83618" fill="#9A46CA"/>
<path d="M7.92273 -0.115601H8.06586V30.8744H7.92273" fill="#9A47CA"/>
<path d="M8.01208 -0.115601H8.15223V30.8744H8.01208" fill="#9A47CA"/>
<path d="M8.09863 -0.115601H8.24176V30.8744H8.09863" fill="#9B47CA"/>
<path d="M8.18799 -0.115601H8.32814V30.8744H8.18799" fill="#9B47CA"/>
<path d="M8.27454 -0.115601H8.41766V30.8744H8.27454" fill="#9B48CA"/>
<path d="M8.38184 -0.115601H8.50409V30.8744H8.38184" fill="#9C48CA"/>
<path d="M8.46838 -0.115601H8.59362V30.8744H8.46838" fill="#9C48CA"/>
<path d="M8.55786 -0.115601H8.68011V30.8744H8.55786" fill="#9C48CA"/>
<path d="M8.64429 -0.115601H8.78741V30.8744H8.64429" fill="#9D49CA"/>
<path d="M8.73376 -0.115601H8.87391V30.8744H8.73376" fill="#9D49CA"/>
<path d="M8.82324 -0.115601H8.96339V30.8744H8.82324" fill="#9D49CA"/>
<path d="M8.90967 -0.115601H9.04981V30.8744H8.90967" fill="#9D49CA"/>
<path d="M8.99915 -0.115601H9.13929V30.8744H8.99915" fill="#9E4ACB"/>
<path d="M9.08557 -0.115601H9.22572V30.8744H9.08557" fill="#9E4ACB"/>
<path d="M9.19287 -0.115601H9.31512V30.8744H9.19287" fill="#9E4ACB"/>
<path d="M9.27942 -0.115601H9.40168V30.8744H9.27942" fill="#9F4BCB"/>
<path d="M9.3689 -0.115601H9.49115V30.8744H9.3689" fill="#9F4BCB"/>
<path d="M9.45532 -0.115601H9.59547V30.8744H9.45532" fill="#9F4BCB"/>
<path d="M9.5448 -0.115601H9.68495V30.8744H9.5448" fill="#9F4BCB"/>
<path d="M9.63123 -0.115601H9.77137V30.8744H9.63123" fill="#A04CCB"/>
<path d="M9.7207 -0.115601H9.86085V30.8744H9.7207" fill="#A04CCB"/>
<path d="M9.80713 -0.115601H9.94727V30.8744H9.80713" fill="#A04CCB"/>
<path d="M9.89661 -0.115601H10.0368V30.8744H9.89661" fill="#A14CCB"/>
<path d="M10.001 -0.115601H10.1262V30.8744H10.001" fill="#A14DCB"/>
<path d="M10.0905 -0.115601H10.2127V30.8744H10.0905" fill="#A14DCB"/>
<path d="M10.1769 -0.115601H10.3021V30.8744H10.1769" fill="#A24DCB"/>
<path d="M10.2664 -0.115601H10.4065V30.8744H10.2664" fill="#A24DCB"/>
<path d="M10.3529 -0.115601H10.496V30.8744H10.3529" fill="#A24ECB"/>
<path d="M10.4423 -0.115601H10.5824V30.8744H10.4423" fill="#A24ECB"/>
<path d="M10.5288 -0.115601H10.6719V30.8744H10.5288" fill="#A34ECB"/>
<path d="M10.6182 -0.115601H10.7583V30.8744H10.6182" fill="#A34ECC"/>
<path d="M10.7047 -0.115601H10.8478V30.8744H10.7047" fill="#A34FCC"/>
<path d="M10.812 -0.115601H10.9343V30.8744H10.812" fill="#A44FCC"/>
<path d="M10.8986 -0.115601H11.0238V30.8744H10.8986" fill="#A44FCC"/>
<path d="M10.988 -0.115601H11.1282V30.8744H10.988" fill="#A44FCC"/>
<path d="M11.0745 -0.115601H11.2176V30.8744H11.0745" fill="#A450CC"/>
<path d="M11.1639 -0.115601H11.3041V30.8744H11.1639" fill="#A550CC"/>
<path d="M11.2504 -0.115601H11.3935V30.8744H11.2504" fill="#A550CC"/>
<path d="M11.3398 -0.115601H11.48V30.8744H11.3398" fill="#A550CC"/>
<path d="M11.4293 -0.115601H11.5695V30.8744H11.4293" fill="#A651CC"/>
<path d="M11.5337 -0.115601H11.6559V30.8744H11.5337" fill="#A651CC"/>
<path d="M11.6201 -0.115601H11.7454V30.8744H11.6201" fill="#A651CC"/>
<path d="M11.7096 -0.115601H11.8319V30.8744H11.7096" fill="#A751CC"/>
<path d="M11.7991 -0.115601H11.9392V30.8744H11.7991" fill="#A752CC"/>
<path d="M11.8855 -0.115601H12.0256V30.8744H11.8855" fill="#A752CC"/>
<path d="M11.975 -0.115601H12.1151V30.8744H11.975" fill="#A752CC"/>
<path d="M12.0614 -0.115601H12.2015V30.8744H12.0614" fill="#A852CC"/>
<path d="M12.1509 -0.115601H12.291V30.8744H12.1509" fill="#A853CC"/>
<path d="M12.2373 -0.115601H12.3774V30.8744H12.2373" fill="#A853CD"/>
<path d="M12.3447 -0.115601H12.467V30.8744H12.3447" fill="#A953CD"/>
<path d="M12.4312 -0.115601H12.5534V30.8744H12.4312" fill="#A953CD"/>
<path d="M12.5206 -0.115601H12.6429V30.8744H12.5206" fill="#A954CD"/>
<path d="M12.6071 -0.115601H12.7472V30.8744H12.6071" fill="#A954CD"/>
<path d="M12.6965 -0.115601H12.8367V30.8744H12.6965" fill="#AA54CD"/>
<path d="M12.783 -0.115601H12.9231V30.8744H12.783" fill="#AA54CD"/>
<path d="M12.8724 -0.115601H13.0126V30.8744H12.8724" fill="#AA55CD"/>
<path d="M12.959 -0.115601H13.1021V30.8744H12.959" fill="#AB55CD"/>
<path d="M13.0483 -0.115601H13.1885V30.8744H13.0483" fill="#AB55CD"/>
<path d="M13.1528 -0.115601H13.2781V30.8744H13.1528" fill="#AB55CD"/>
<path d="M13.2422 -0.115601H13.3644V30.8744H13.2422" fill="#AC56CD"/>
<path d="M13.3287 -0.115601H13.454V30.8744H13.3287" fill="#AC56CD"/>
<path d="M13.4181 -0.115601H13.5582V30.8744H13.4181" fill="#AC56CD"/>
<path d="M13.5046 -0.115601H13.6478V30.8744H13.5046" fill="#AC56CD"/>
<path d="M13.5941 -0.115601H13.7343V30.8744H13.5941" fill="#AD57CD"/>
<path d="M13.6805 -0.115601H13.8237V30.8744H13.6805" fill="#AD57CD"/>
<path d="M13.77 -0.115601H13.9102V30.8744H13.77" fill="#AD57CD"/>
<path d="M13.8564 -0.115601H13.9996V30.8744H13.8564" fill="#AE58CE"/>
<path d="M13.9639 -0.115601H14.0861V30.8744H13.9639" fill="#AE58CE"/>
<path d="M14.0503 -0.115601H14.1755V30.8744H14.0503" fill="#AE58CE"/>
<path d="M14.1398 -0.115601H14.262V30.8744H14.1398" fill="#AE58CE"/>
<path d="M14.2262 -0.115601H14.3693V30.8744H14.2262" fill="#AF59CE"/>
<path d="M14.3157 -0.115601H14.4558V30.8744H14.3157" fill="#AF59CE"/>
<path d="M14.4052 -0.115601H14.5453V30.8744H14.4052" fill="#AF59CE"/>
<path d="M14.4916 -0.115601H14.6317V30.8744H14.4916" fill="#B059CE"/>
<path d="M14.5811 -0.115601H14.7212V30.8744H14.5811" fill="#B05ACE"/>
<path d="M14.6675 -0.115601H14.8076V30.8744H14.6675" fill="#B05ACE"/>
<path d="M14.7749 -0.115601H14.8972V30.8744H14.7749" fill="#B15ACE"/>
<path d="M14.8613 -0.115601H14.9836V30.8744H14.8613" fill="#B15ACE"/>
<path d="M14.9508 -0.115601H15.0731V30.8744H14.9508" fill="#B15BCE"/>
<path d="M15.0372 -0.115601H15.1774V30.8744H15.0372" fill="#B15BCE"/>
<path d="M15.1267 -0.115601H15.2669V30.8744H15.1267" fill="#B25BCE"/>
<path d="M15.2131 -0.115601H15.3533V30.8744H15.2131" fill="#B25BCE"/>
<path d="M15.3026 -0.115601H15.4428V30.8744H15.3026" fill="#B25CCE"/>
<path d="M15.3892 -0.115601H15.5293V30.8744H15.3892" fill="#B35CCE"/>
<path d="M15.4786 -0.115601H15.6188V30.8744H15.4786" fill="#B35CCE"/>
<path d="M15.583 -0.115601H15.7053V30.8744H15.583" fill="#B35CCF"/>
<path d="M15.6724 -0.115601H15.7946V30.8744H15.6724" fill="#B35DCF"/>
<path d="M15.7589 -0.115601H15.8841V30.8744H15.7589" fill="#B45DCF"/>
<path d="M15.8483 -0.115601H15.9884V30.8744H15.8483" fill="#B45DCF"/>
<path d="M15.9348 -0.115601H16.0779V30.8744H15.9348" fill="#B45DCF"/>
<path d="M16.0243 -0.115601H16.1644V30.8744H16.0243" fill="#B55ECF"/>
<path d="M16.1107 -0.115601H16.2538V30.8744H16.1107" fill="#B55ECF"/>
<path d="M16.2002 -0.115601H16.3403V30.8744H16.2002" fill="#B55ECF"/>
<path d="M16.2866 -0.115601H16.4297V30.8744H16.2866" fill="#B65ECF"/>
<path d="M16.394 -0.115601H16.5163V30.8744H16.394" fill="#B65FCF"/>
<path d="M16.4805 -0.115601H16.6057V30.8744H16.4805" fill="#B65FCF"/>
<path d="M16.5699 -0.115601H16.6922V30.8744H16.5699" fill="#B65FCF"/>
<path d="M16.6564 -0.115601H16.7995V30.8744H16.6564" fill="#B75FCF"/>
<path d="M16.7458 -0.115601H16.886V30.8744H16.7458" fill="#B760CF"/>
<path d="M16.8323 -0.115601H16.9754V30.8744H16.8323" fill="#B760CF"/>
<path d="M16.9218 -0.115601H17.0619V30.8744H16.9218" fill="#B860CF"/>
<path d="M17.0083 -0.115601H17.1514V30.8744H17.0083" fill="#B860CF"/>
<path d="M17.0977 -0.115601H17.2378V30.8744H17.0977" fill="#B861CF"/>
<path d="M17.202 -0.115601H17.3273V30.8744H17.202" fill="#B861D0"/>
<path d="M17.2915 -0.115601H17.4138V30.8744H17.2915" fill="#B961D0"/>
<path d="M17.3781 -0.115601H17.5033V30.8744H17.3781" fill="#B961D0"/>
<path d="M17.4674 -0.115601H17.6076V30.8744H17.4674" fill="#B962D0"/>
<path d="M17.5569 -0.115601H17.697V30.8744H17.5569" fill="#BA62D0"/>
<path d="M17.6433 -0.115601H17.7835V30.8744H17.6433" fill="#BA62D0"/>
<path d="M17.7328 -0.115601H17.8729V30.8744H17.7328" fill="#BA62D0"/>
<path d="M17.8193 -0.115601H17.9595V30.8744H17.8193" fill="#BB63D0"/>
<path d="M17.9088 -0.115601H18.049V30.8744H17.9088" fill="#BB63D0"/>
<path d="M18.0131 -0.115601H18.1353V30.8744H18.0131" fill="#BB63D0"/>
<path d="M18.1025 -0.115601H18.2248V30.8744H18.1025" fill="#BB63D0"/>
<path d="M18.1891 -0.115601H18.3113V30.8744H18.1891" fill="#BC64D0"/>
<path d="M18.2784 -0.115601H18.4186V30.8744H18.2784" fill="#BC64D0"/>
<path d="M18.365 -0.115601H18.5051V30.8744H18.365" fill="#BC64D0"/>
<path d="M18.4545 -0.115601H18.5946V30.8744H18.4545" fill="#BD65D0"/>
<path d="M18.5409 -0.115601H18.681V30.8744H18.5409" fill="#BD65D0"/>
<path d="M18.6304 -0.115601H18.7705V30.8744H18.6304" fill="#BD65D0"/>
<path d="M18.7168 -0.115601H18.8599V30.8744H18.7168" fill="#BD65D0"/>
<path d="M18.8242 -0.115601H18.9465V30.8744H18.8242" fill="#BE66D1"/>
<path d="M18.9106 -0.115601H19.0359V30.8744H18.9106" fill="#BE66D1"/>
<path d="M19.0001 -0.115601H19.1224V30.8744H19.0001" fill="#BE66D1"/>
<path d="M19.0865 -0.115601H19.2297V30.8744H19.0865" fill="#BF66D1"/>
<path d="M19.176 -0.115601H19.3162V30.8744H19.176" fill="#BF67D1"/>
<path d="M19.2625 -0.115601H19.4056V30.8744H19.2625" fill="#BF67D1"/>
<path d="M19.3519 -0.115601H19.4921V30.8744H19.3519" fill="#C067D1"/>
<path d="M19.4385 -0.115601H19.5816V30.8744H19.4385" fill="#C067D1"/>
<path d="M19.5278 -0.115601H19.668V30.8744H19.5278" fill="#C068D1"/>
<path d="M19.6323 -0.115601H19.7576V30.8744H19.6323" fill="#C068D1"/>
<path d="M19.7217 -0.115601H19.8439V30.8744H19.7217" fill="#C168D1"/>
<path d="M19.8081 -0.115601H19.9333V30.8744H19.8081" fill="#C168D1"/>
<path d="M19.8976 -0.115601H20.0377V30.8744H19.8976" fill="#C169D1"/>
<path d="M19.9841 -0.115601H20.1273V30.8744H19.9841" fill="#C269D1"/>
<path d="M20.0736 -0.115601H20.2138V30.8744H20.0736" fill="#C269D1"/>
<path d="M20.163 -0.115601H20.3031V30.8744H20.163" fill="#C269D1"/>
<path d="M20.2495 -0.115601H20.3897V30.8744H20.2495" fill="#C26AD1"/>
<path d="M20.339 -0.115601H20.4791V30.8744H20.339" fill="#C36AD1"/>
<path d="M20.4432 -0.115601H20.5655V30.8744H20.4432" fill="#C36AD2"/>
<path d="M20.5327 -0.115601H20.655V30.8744H20.5327" fill="#C36AD2"/>
<path d="M20.6193 -0.115601H20.7415V30.8744H20.6193" fill="#C46BD2"/>
<path d="M20.7087 -0.115601H20.8489V30.8744H20.7087" fill="#C46BD2"/>
<path d="M20.7952 -0.115601H20.9353V30.8744H20.7952" fill="#C46BD2"/>
<path d="M20.8846 -0.115601H21.0248V30.8744H20.8846" fill="#C56BD2"/>
<path d="M20.9711 -0.115601H21.1112V30.8744H20.9711" fill="#C56CD2"/>
<path d="M21.0605 -0.115601H21.2007V30.8744H21.0605" fill="#C56CD2"/>
<path d="M21.147 -0.115601H21.2871V30.8744H21.147" fill="#C56CD2"/>
<path d="M21.2544 -0.115601H21.3766V30.8744H21.2544" fill="#C66CD2"/>
<path d="M21.3408 -0.115601H21.4661V30.8744H21.3408" fill="#C66DD2"/>
<path d="M21.4303 -0.115601H21.5526V30.8744H21.4303" fill="#C66DD2"/>
<path d="M21.5167 -0.115601H21.6569V30.8744H21.5167" fill="#C76DD2"/>
<path d="M21.6062 -0.115601H21.7463V30.8744H21.6062" fill="#C76DD2"/>
<path d="M21.6926 -0.115601H21.8358V30.8744H21.6926" fill="#C76ED2"/>
<path d="M21.7821 -0.115601H21.9222V30.8744H21.7821" fill="#C76ED2"/>
<path d="M21.8687 -0.115601H22.0118V30.8744H21.8687" fill="#C86ED2"/>
<path d="M21.958 -0.115601H22.0982V30.8744H21.958" fill="#C86ED2"/>
<path d="M22.0624 -0.115601H22.1876V30.8744H22.0624" fill="#C86FD3"/>
<path d="M22.1519 -0.115601H22.2741V30.8744H22.1519" fill="#C96FD3"/>
<path d="M22.2383 -0.115601H22.3635V30.8744H22.2383" fill="#C96FD3"/>
<path d="M22.3278 -0.115601H22.4679V30.8744H22.3278" fill="#C96FD3"/>
<path d="M22.4143 -0.115601H22.5574V30.8744H22.4143" fill="#CA70D3"/>
<path d="M22.5038 -0.115601H22.6439V30.8744H22.5038" fill="#CA70D3"/>
<path d="M22.5902 -0.115601H22.7333V30.8744H22.5902" fill="#CA70D3"/>
<path d="M22.6797 -0.115601H22.8198V30.8744H22.6797" fill="#CA70D3"/>
<path d="M22.7692 -0.115601H22.9093V30.8744H22.7692" fill="#CB71D3"/>
<path d="M22.8734 -0.115601H23.0493V30.8744H22.8734" fill="#CB71D3"/>
</g>
</svg>
